PathFileType	4	(X/Y/Z)	s11c0001.trc
DataRate	CameraRate	NumFrames	NumMarkers	Units	OrigDataRate	OrigDataStartFrame	OrigNumFrames
200	200	7	49	mm	200	750	2000
Frame#	Time	racr			lacr			c7			jug			rlel			rdr			llel			ldr			s2			lic			ric			lasi			rasi			rpsi			lpsi			rgt			lgt			rth1			rth2			rth3			rth4			rlfc			rmfc			rsh1			rsh2			rsh3			rsh4			rlmal			rmmal			rcal			rtoe			rmt5			rmt1			lth1			lth2			lth4			lth3			llfc			lmfc			llmal			lmmal			lcal			lmt1			lmt5			lsh1			lsh2			lsh3			lsh4			ltoe			
		X1	Y1	Z1	X2	Y2	Z2	X3	Y3	Z3	X4	Y4	Z4	X5	Y5	Z5	X6	Y6	Z6	X7	Y7	Z7	X8	Y8	Z8	X9	Y9	Z9	X10	Y10	Z10	X11	Y11	Z11	X12	Y12	Z12	X13	Y13	Z13	X14	Y14	Z14	X15	Y15	Z15	X16	Y16	Z16	X17	Y17	Z17	X18	Y18	Z18	X19	Y19	Z19	X20	Y20	Z20	X21	Y21	Z21	X22	Y22	Z22	X23	Y23	Z23	X24	Y24	Z24	X25	Y25	Z25	X26	Y26	Z26	X27	Y27	Z27	X28	Y28	Z28	X29	Y29	Z29	X30	Y30	Z30	X31	Y31	Z31	X32	Y32	Z32	X33	Y33	Z33	X34	Y34	Z34	X35	Y35	Z35	X36	Y36	Z36	X37	Y37	Z37	X38	Y38	Z38	X39	Y39	Z39	X40	Y40	Z40	X41	Y41	Z41	X42	Y42	Z42	X43	Y43	Z43	X44	Y44	Z44	X45	Y45	Z45	X46	Y46	Z46	X47	Y47	Z47	X48	Y48	Z48	X49	Y49	Z49	
750	3.7500	485.935699	1571.798950	591.898621	456.865417	1597.131348	178.350082	390.407318	1620.156982	385.278351	554.528137	1561.905518	367.336273	488.747192	1314.250488	743.466187	620.511719	1088.970825	890.216553	429.223206	1302.294678	47.107483	555.622986	1064.258667	-130.434296	343.867645	1075.696655	393.069672	513.390381	1163.083862	175.768555	556.547058	1152.213745	566.425659	579.893494	1109.497559	205.108704	612.133362	1112.296509	520.735107	365.718048	1130.547974	447.672638	352.432434	1127.503052	344.979797	509.344177	960.921204	588.506287	445.433990	992.193665	174.083008	518.823608	833.348633	585.615356	538.890564	750.403564	560.206055	514.692627	668.526428	541.835876	572.774902	753.077881	547.681702	509.600220	562.772827	516.439148	504.388184	545.560669	396.809937	464.066254	413.911255	538.828308	478.932190	327.560638	524.929382	448.863708	244.970535	524.771484	505.132446	327.210693	495.847961	431.596863	108.668106	513.406799	463.398315	122.721107	425.907196	386.763641	80.305817	459.304657	667.399353	91.290199	518.992188	591.012207	54.248466	573.976257	609.856812	58.575172	458.454498	474.324066	859.098572	154.102753	493.558838	776.929260	168.827179	529.859802	775.549988	174.289719	467.282288	692.466309	182.977753	462.025665	550.394409	212.893478	475.624695	540.254822	339.020691	405.949097	117.535774	223.469009	436.861481	133.711105	297.587006	369.155853	68.625031	259.881653	592.923157	56.056046	292.025970	569.979004	55.301762	174.944153	424.542236	427.519836	192.023285	442.859375	343.632263	199.146179	416.923615	258.979401	202.716721	474.645782	343.957306	221.579697	660.260681	95.471962	243.958984	
751	3.7550	485.981476	1571.801270	591.935608	456.875458	1597.116333	178.358551	390.431885	1620.158691	385.268036	554.536194	1561.910889	367.346313	488.796722	1314.241821	743.472534	620.584717	1088.953735	890.186279	429.210083	1302.272461	47.126434	555.575073	1064.245239	-130.437286	343.879822	1075.695557	393.106049	513.403015	1163.052490	175.787384	556.575134	1152.217163	566.417419	579.906067	1109.482300	205.118637	612.152527	1112.278687	520.749146	365.743652	1130.544800	447.682251	352.456543	1127.501465	344.976746	509.372894	960.915771	588.513062	445.438904	992.185608	174.104080	518.829529	833.330505	585.617065	538.916138	750.413574	560.196960	514.716003	668.532959	541.832764	572.781555	753.076294	547.676514	509.614624	562.768616	516.440369	504.421173	545.580750	396.820679	464.064575	413.900085	538.830383	478.931885	327.559540	524.930481	448.882782	244.980820	524.766357	505.130463	327.212402	495.861115	431.580078	108.672333	513.421387	463.409393	122.727997	425.913239	386.784180	80.287048	459.283142	667.406616	91.332031	518.971313	590.998962	54.259403	573.969421	609.853577	58.573532	458.449219	474.326599	859.099548	154.084686	493.573364	776.925720	168.824020	529.874329	775.552429	174.284836	467.268036	692.478943	182.981247	462.020142	550.392517	212.889130	475.650879	540.236450	339.010132	405.966919	117.530235	223.481659	436.863007	133.720718	297.596649	369.137695	68.629372	259.883484	592.906067	56.062897	292.021210	569.982727	55.295906	174.937088	424.549835	427.526672	192.021729	442.842560	343.625793	199.146332	416.930420	258.978851	202.718582	474.655487	343.956451	221.585297	660.269836	95.488266	243.978867	
752	3.7600	486.045471	1571.782837	591.921875	456.851746	1597.093750	178.369446	390.444580	1620.146484	385.324585	554.544312	1561.897095	367.342773	488.853424	1314.244873	743.466614	620.670044	1088.953491	890.166565	429.202179	1302.262817	47.156155	555.504272	1064.234375	-130.431900	343.948334	1075.688477	393.074738	513.418579	1163.062988	175.786880	556.603394	1152.206665	566.416504	579.937256	1109.477051	205.120636	612.185059	1112.289185	520.731934	365.786285	1130.546753	447.705170	352.455963	1127.500122	344.998779	509.401276	960.912964	588.519958	445.442719	992.191223	174.106461	518.855225	833.330383	585.617554	538.943970	750.408020	560.203613	514.739990	668.540161	541.854309	572.793213	753.064331	547.675964	509.615753	562.770264	516.426758	504.386963	545.578003	396.798309	464.066772	413.905090	538.840576	478.907288	327.547577	524.911987	448.868713	244.975800	524.777466	505.138336	327.197296	495.837830	431.580719	108.642792	513.417664	463.429077	122.744675	425.921326	386.767761	80.299721	459.298126	667.406677	91.329178	518.972107	591.037720	54.241894	573.977783	609.865356	58.568058	458.456726	474.328644	859.106079	154.106583	493.573914	776.923889	168.826431	529.859680	775.549377	174.289703	467.266998	692.484619	182.983429	462.035065	550.399780	212.884689	475.646484	540.256409	339.035065	405.965637	117.539398	223.474564	436.858490	133.719391	297.592834	369.149292	68.623924	259.894867	592.910034	56.054302	292.019989	569.975403	55.284870	174.937714	424.543213	427.526062	192.024216	442.864929	343.639313	199.130997	416.930145	258.970764	202.703003	474.664703	343.954620	221.582855	660.257568	95.469734	243.975830	
753	3.7650	486.083313	1571.780396	591.932068	456.832428	1597.112671	178.357025	390.468384	1620.150879	385.317535	554.544617	1561.894165	367.340790	488.896667	1314.209595	743.464844	620.768555	1088.965576	890.164307	429.161652	1302.251587	47.186367	555.446838	1064.223389	-130.442093	343.943298	1075.703735	393.103607	513.427551	1163.052856	175.775177	556.630554	1152.209351	566.406189	579.924072	1109.472900	205.112274	612.219666	1112.296631	520.735779	365.813385	1130.537476	447.687653	352.485962	1127.491211	345.015533	509.430573	960.907288	588.526062	445.446136	992.199829	174.107666	518.888672	833.318848	585.606506	538.957153	750.405518	560.215088	514.736328	668.509949	541.852234	572.820251	753.062866	547.677063	509.627991	562.768433	516.432373	504.386322	545.561218	396.811066	464.074463	413.910400	538.837769	478.972412	327.572571	524.943298	448.878937	244.996643	524.769531	505.152466	327.203430	495.866730	431.614105	108.665947	513.427612	463.406982	122.741158	425.918793	386.759308	80.289833	459.285187	667.393677	91.323952	518.974487	591.018677	54.238262	573.976746	609.859680	58.561054	458.460663	474.328552	859.101868	154.099487	493.556091	776.935852	168.803207	529.862915	775.535706	174.318130	467.283966	692.479431	182.976608	462.034393	550.391663	212.898087	475.648468	540.227478	339.035004	405.956146	117.525383	223.491837	436.862762	133.721634	297.600708	369.156342	68.618866	259.891724	592.911682	56.050972	292.002930	569.976318	55.309532	174.935913	424.549835	427.530670	192.038376	442.862549	343.624268	199.140518	416.923584	258.974426	202.714355	474.655304	343.972931	221.562790	660.264099	95.464081	243.985855	
754	3.7700	486.120544	1571.779175	591.941162	456.796143	1597.110596	178.366241	390.487640	1620.140625	385.339813	554.553528	1561.904907	367.323944	488.970093	1314.218384	743.453857	620.854553	1088.955811	890.147400	429.140930	1302.239014	47.188679	555.387268	1064.213257	-130.458374	343.939911	1075.713379	393.134491	513.402100	1163.050659	175.788071	556.709473	1152.210693	566.432678	579.908875	1109.480103	205.111343	612.235291	1112.258545	520.711670	365.828949	1130.548706	447.728119	352.496216	1127.505249	345.032623	509.461731	960.912537	588.546936	445.457764	992.186279	174.107224	518.910339	833.322754	585.617432	538.981323	750.401794	560.200378	514.749023	668.504578	541.852661	572.829041	753.061646	547.662415	509.621948	562.763916	516.434998	504.435181	545.575378	396.789856	464.067993	413.906189	538.829102	478.916382	327.548248	524.916260	448.887085	244.982712	524.776306	505.147522	327.215942	495.854919	431.605255	108.660828	513.414246	463.416779	122.750137	425.897156	386.753845	80.314812	459.284149	667.379517	91.321228	518.987610	591.018677	54.238255	573.976685	609.860901	58.566921	458.454681	474.327667	859.100403	154.105637	493.571136	776.937500	168.805969	529.848022	775.530701	174.289764	467.270813	692.479431	183.005417	462.022217	550.407104	212.886337	475.674957	540.235596	339.019165	405.959015	117.539612	223.489944	436.864624	133.724182	297.590057	369.148315	68.624107	259.889343	592.910095	56.061184	292.020416	569.977966	55.275738	174.934723	424.530182	427.528442	192.019073	442.864532	343.635559	199.139542	416.926849	258.977844	202.718475	474.645477	343.958496	221.577301	660.270752	95.469086	243.973572	
755	3.7750	486.140259	1571.761230	591.956055	456.795227	1597.095093	178.385880	390.512543	1620.140869	385.330139	554.565796	1561.900391	367.333435	489.027527	1314.199829	743.446838	620.955933	1088.961304	890.128052	429.116333	1302.228149	47.190483	555.315491	1064.191528	-130.453888	343.974854	1075.697021	393.151154	513.400879	1163.053711	175.797043	556.703064	1152.211548	566.414185	579.924072	1109.472900	205.112274	612.271729	1112.265381	520.716431	365.879608	1130.526733	447.722656	352.509491	1127.492798	345.052246	509.495148	960.898743	588.538208	445.461121	992.193481	174.107193	518.920837	833.329712	585.621216	538.997925	750.411255	560.204895	514.760559	668.515381	541.851746	572.839905	753.066589	547.666199	509.645660	562.759644	516.432190	504.434235	545.576172	396.796417	464.080048	413.916290	538.849060	478.919128	327.544159	524.919312	448.882080	244.972549	524.769348	505.153870	327.215851	495.851868	431.613037	108.665070	513.430420	463.426605	122.725029	425.926422	386.761230	80.311028	459.293396	667.391052	91.338882	518.991638	591.044250	54.253647	573.981934	609.862549	58.562073	458.460480	474.323975	859.098816	154.103729	493.571045	776.938354	168.805099	529.859680	775.549377	174.289703	467.266968	692.491882	182.988968	462.010223	550.392456	212.882355	475.658936	540.236328	339.034180	405.965027	117.532524	223.486771	436.874512	133.710358	297.589813	369.150208	68.621971	259.898590	592.904907	56.058853	292.023560	569.983398	55.302223	174.931854	424.524200	427.528168	192.024628	442.835571	343.629822	199.118973	416.894653	258.977234	202.719940	474.645325	343.948120	221.576691	660.259033	95.466759	243.971939	
756	3.7800	486.197784	1571.762573	591.962524	456.814941	1597.098145	178.400803	390.530701	1620.134766	385.355042	554.580750	1561.889648	367.339905	489.076233	1314.175659	743.450073	621.062195	1088.963867	890.108582	429.087311	1302.214355	47.234650	555.248779	1064.181885	-130.459183	343.980652	1075.712158	393.169006	513.412476	1163.045898	175.798996	556.781067	1152.212158	566.438538	579.946960	1109.474243	205.099045	612.301025	1112.255981	520.701477	365.874115	1130.513672	447.754730	352.519836	1127.504761	345.075500	509.521973	960.888489	588.544983	445.469757	992.192261	174.120346	518.965698	833.314514	585.613892	539.026306	750.406921	560.193115	514.790405	668.515381	541.857300	572.862061	753.054688	547.659058	509.637665	562.765076	516.434692	504.466125	545.569458	396.805359	464.093719	413.897430	538.843079	478.979767	327.571198	524.949036	448.908569	244.972321	524.751404	505.157013	327.194702	495.845886	431.578003	108.626266	513.426514	463.401642	122.722672	425.914185	386.744904	80.298607	459.314819	667.397522	91.328842	518.969910	591.075684	54.237675	573.986023	609.860229	58.577045	458.439453	474.339172	859.103149	154.106873	493.570679	776.943604	168.802063	529.873840	775.556946	174.280945	467.295471	692.480591	183.009903	462.040222	550.381165	212.891190	475.663513	540.254578	339.021423	405.951080	117.535835	223.478333	436.861694	133.722397	297.600586	369.150818	68.613724	259.890869	592.923889	56.050720	292.008270	569.961975	55.304077	174.933029	424.531342	427.527161	192.034576	442.841797	343.636749	199.119827	416.924194	258.976135	202.736786	474.649170	343.960175	221.569214	660.258545	95.459496	243.964600	
